<svg width="663" height="300" xmlns="http://www.w3.org/2000/svg">
  <defs>
    <linearGradient x1="50%" y1="0%" x2="50%" y2="100%" id="a">
      <stop stop-color="#FF9600" offset="0%"/>
      <stop stop-color="#FF5F00" offset="100%"/>
    </linearGradient>
    <linearGradient x1="50%" y1="0%" x2="50%" y2="100%" id="b">
      <stop stop-color="#5BC015" offset="0%"/>
      <stop stop-color="#327002" offset="100%"/>
    </linearGradient>
    <linearGradient x1="50%" y1="2.423%" x2="50%" y2="100%" id="c">
      <stop stop-color="#77EC31" offset="0%"/>
      <stop stop-color="#55B709" offset="100%"/>
    </linearGradient>
  </defs>
  <g fill="none" fill-rule="evenodd">
    <path d="M100 300C44.772 300 0 255.228 0 200s44.772-100 100-100 100 44.772 100 100-44.772 100-100 100zm0-50c27.614 0 50-22.386 50-50s-22.386-50-50-50-50 22.386-50 50 22.386 50 50 50z" fill="url(#a)"/>
    <path d="M26.038 84c-34.717-29.3-34.717-57.3 0-84 31.95 26.7 31.95 54.7 0 84z" fill="url(#b)" transform="translate(75)"/>
    <path d="M26 84c0-48.284 8.445-57.474 59-58 0 45.32-14.074 58-59 58z" fill="url(#c)" transform="translate(75)"/>
    <g fill="#4B433D">
      <path d="M247 125.917c0-1.056.25-1.986.75-2.792.5-.806 1.222-1.208 2.167-1.208H284.5c.944 0 1.667.389 2.167 1.166.5.778.75 1.695.75 2.75 0 1.167-.264 2.153-.792 2.959-.528.805-1.236 1.208-2.125 1.208h-12.833v49.917c0 .889-.445 1.597-1.334 2.125-.889.527-1.916.791-3.083.791-1.222 0-2.264-.264-3.125-.791-.861-.528-1.292-1.236-1.292-2.125V130h-12.916c-.89 0-1.598-.403-2.125-1.208-.528-.806-.792-1.764-.792-2.875zm51.25 54V124.75c0-.944.43-1.653 1.292-2.125.86-.472 1.902-.708 3.125-.708 1.222 0 2.264.236 3.125.708.86.472 1.291 1.18 1.291 2.125v23h20.75v-23c0-.944.43-1.653 1.292-2.125.861-.472 1.903-.708 3.125-.708s2.264.236 3.125.708c.861.472 1.292 1.18 1.292 2.125v55.167c0 .889-.43 1.597-1.292 2.125-.861.527-1.903.791-3.125.791-1.167 0-2.194-.264-3.083-.791-.89-.528-1.334-1.236-1.334-2.125V154.75h-20.75v25.167c0 .889-.43 1.597-1.291 2.125-.861.527-1.903.791-3.125.791-1.167 0-2.195-.264-3.084-.791-.889-.528-1.333-1.236-1.333-2.125zm53.583 0v-55.084c0-.889.39-1.597 1.167-2.125.778-.527 1.694-.791 2.75-.791h29.667c.944 0 1.666.389 2.166 1.166.5.778.75 1.667.75 2.667 0 1.111-.264 2.056-.791 2.833-.528.778-1.236 1.167-2.125 1.167h-24.75v19.083H373.5c.889 0 1.597.348 2.125 1.042.528.694.792 1.542.792 2.542 0 .889-.25 1.68-.75 2.375-.5.694-1.223 1.041-2.167 1.041h-12.833V175h24.75c.889 0 1.597.389 2.125 1.167.527.777.791 1.722.791 2.833 0 1-.25 1.889-.75 2.667-.5.777-1.222 1.166-2.166 1.166H355.75c-1.056 0-1.972-.264-2.75-.791-.778-.528-1.167-1.236-1.167-2.125zm68-15.167V140.5c0-6.389 1.695-11.083 5.084-14.083 3.389-3 7.916-4.5 13.583-4.5s10.208 1.5 13.625 4.5 5.125 7.694 5.125 14.083v24.25c0 6.389-1.708 11.083-5.125 14.083s-7.958 4.5-13.625 4.5-10.194-1.5-13.583-4.5c-3.39-3-5.084-7.694-5.084-14.083zm8.834 0c0 7.167 3.277 10.75 9.833 10.75 3.167 0 5.611-.889 7.333-2.667 1.723-1.777 2.584-4.472 2.584-8.083V140.5c0-3.611-.861-6.306-2.584-8.083-1.722-1.778-4.166-2.667-7.333-2.667-6.556 0-9.833 3.583-9.833 10.75v24.25zm43.083 15.167V124.75c0-.778.32-1.444.958-2 .64-.556 1.459-.833 2.459-.833h16.25c5.555 0 9.986 1.472 13.291 4.416 3.306 2.945 4.959 7.584 4.959 13.917v.667c0 6.333-1.709 10.986-5.125 13.958-3.417 2.972-7.959 4.458-13.625 4.458h-10.334v20.584c0 .889-.43 1.597-1.291 2.125-.861.527-1.903.791-3.125.791-1.167 0-2.195-.264-3.084-.791-.889-.528-1.333-1.236-1.333-2.125zm8.833-27.584h10.334c3.166 0 5.61-.902 7.333-2.708 1.722-1.806 2.583-4.514 2.583-8.125v-1c0-3.611-.86-6.306-2.583-8.083-1.722-1.778-4.167-2.667-7.333-2.667h-10.334v22.583zm40.75 27.584v-55.084c0-.889.39-1.597 1.167-2.125.778-.527 1.694-.791 2.75-.791h29.667c.944 0 1.666.389 2.166 1.166.5.778.75 1.667.75 2.667 0 1.111-.264 2.056-.791 2.833-.528.778-1.236 1.167-2.125 1.167h-24.75v19.083H543c.889 0 1.597.348 2.125 1.042.528.694.792 1.542.792 2.542 0 .889-.25 1.68-.75 2.375-.5.694-1.223 1.041-2.167 1.041h-12.833V175h24.75c.889 0 1.597.389 2.125 1.167.527.777.791 1.722.791 2.833 0 1-.25 1.889-.75 2.667-.5.777-1.222 1.166-2.166 1.166H525.25c-1.056 0-1.972-.264-2.75-.791-.778-.528-1.167-1.236-1.167-2.125zm47.75 0v-55.084c0-1.944 1.473-2.916 4.417-2.916 1.556 0 2.806.347 3.75 1.041.944.695 1.917 2.014 2.917 3.959l18.5 36.083v-38.25c0-.944.43-1.653 1.291-2.125s1.903-.708 3.125-.708c1.223 0 2.264.236 3.125.708.861.472 1.292 1.18 1.292 2.125v55.167c0 .889-.43 1.597-1.292 2.125-.86.527-1.902.791-3.125.791-2.333 0-4.083-1.083-5.25-3.25l-19.916-37.916v38.25c0 .889-.43 1.597-1.292 2.125-.861.527-1.903.791-3.125.791-1.167 0-2.194-.264-3.083-.791-.89-.528-1.334-1.236-1.334-2.125zm-318.25 91.166V217c0-1.056.473-1.889 1.417-2.5.944-.611 2.056-.917 3.333-.917h29.084c1.11 0 1.944.459 2.5 1.375.555.917.833 2.014.833 3.292 0 1.333-.292 2.472-.875 3.417-.583.944-1.403 1.416-2.458 1.416h-23v16.667h12.75c1.055 0 1.875.417 2.458 1.25.583.833.875 1.861.875 3.083 0 1.111-.292 2.084-.875 2.917-.583.833-1.403 1.25-2.458 1.25h-12.75v22.833c0 1.056-.542 1.89-1.625 2.5-1.084.611-2.348.917-3.792.917-1.5 0-2.778-.306-3.833-.917-1.056-.61-1.584-1.444-1.584-2.5zM296 255.917v-23.25c0-6.611 1.764-11.445 5.292-14.5 3.527-3.056 8.264-4.584 14.208-4.584 5.944 0 10.694 1.528 14.25 4.584 3.556 3.055 5.333 7.889 5.333 14.5v23.25c0 6.61-1.777 11.444-5.333 14.5-3.556 3.055-8.306 4.583-14.25 4.583-5.944 0-10.68-1.528-14.208-4.583-3.528-3.056-5.292-7.89-5.292-14.5zm10.833 0c0 6.389 2.89 9.583 8.667 9.583 5.833 0 8.75-3.194 8.75-9.583v-23.25c0-6.39-2.917-9.584-8.75-9.584-5.778 0-8.667 3.195-8.667 9.584v23.25zm41 0v-23.25c0-6.611 1.764-11.445 5.292-14.5 3.528-3.056 8.264-4.584 14.208-4.584 5.945 0 10.695 1.528 14.25 4.584 3.556 3.055 5.334 7.889 5.334 14.5v23.25c0 6.61-1.778 11.444-5.334 14.5-3.555 3.055-8.305 4.583-14.25 4.583-5.944 0-10.68-1.528-14.208-4.583-3.528-3.056-5.292-7.89-5.292-14.5zm10.834 0c0 6.389 2.889 9.583 8.666 9.583 5.834 0 8.75-3.194 8.75-9.583v-23.25c0-6.39-2.916-9.584-8.75-9.584-5.777 0-8.666 3.195-8.666 9.584v23.25zm41.666 15.25v-54.25c0-.89.445-1.667 1.334-2.334.889-.666 2.027-1 3.416-1h14.75c5.945 0 10.695 1.528 14.25 4.584 3.556 3.055 5.334 7.889 5.334 14.5v22.75c0 6.61-1.778 11.444-5.334 14.5-3.555 3.055-8.305 4.583-14.25 4.583h-14.75c-1.389 0-2.527-.333-3.416-1-.89-.667-1.334-1.444-1.334-2.333zM411.167 265h8.666c5.834 0 8.75-3.194 8.75-9.583v-22.75c0-6.39-2.916-9.584-8.75-9.584h-8.666V265zm62.5 6.083v-54.166c0-.89.333-1.667 1-2.334.666-.666 1.5-1 2.5-1h16.5c13.166 0 19.75 5.806 19.75 17.417 0 4.556-.986 8.222-2.959 11-1.972 2.778-4.625 4.667-7.958 5.667l10.917 20.25c.277.333.416.777.416 1.333 0 1.389-.722 2.68-2.166 3.875-1.445 1.194-2.973 1.792-4.584 1.792-1.61 0-2.86-.861-3.75-2.584l-11.833-23h-7v21.75c0 1.056-.528 1.89-1.583 2.5-1.056.611-2.334.917-3.834.917-1.444 0-2.708-.306-3.791-.917-1.084-.61-1.625-1.444-1.625-2.5zm10.833-30.25h9.167c5.944 0 8.916-2.944 8.916-8.833 0-5.944-2.972-8.917-8.916-8.917H484.5v17.75zm40.833 30.25V217c0-1.056.473-1.889 1.417-2.5.944-.611 2.056-.917 3.333-.917h29.667c1.111 0 1.958.473 2.542 1.417.583.944.875 2.028.875 3.25 0 1.333-.306 2.472-.917 3.417-.611.944-1.444 1.416-2.5 1.416h-23.583v16.667h12.666c1.056 0 1.89.43 2.5 1.292.611.86.917 1.875.917 3.041a5.013 5.013 0 0 1-.875 2.875c-.583.861-1.43 1.292-2.542 1.292h-12.666V265h23.583c1.056 0 1.889.472 2.5 1.417.611.944.917 2.083.917 3.416 0 1.223-.292 2.306-.875 3.25-.584.945-1.43 1.417-2.542 1.417h-29.667c-1.277 0-2.389-.306-3.333-.917-.944-.61-1.417-1.444-1.417-2.5zm48.334 0v-54.166c0-.89.375-1.667 1.125-2.334.75-.666 1.736-1 2.958-1h16.75c5.722 0 10.306 1.514 13.75 4.542 3.444 3.028 5.167 7.764 5.167 14.208v.5c0 6.5-1.792 11.278-5.375 14.334-3.584 3.055-8.32 4.583-14.209 4.583H584.5v19.333c0 1.056-.542 1.89-1.625 2.5-1.083.611-2.347.917-3.792.917-1.5 0-2.777-.306-3.833-.917-1.056-.61-1.583-1.444-1.583-2.5zM584.5 243.25h9.333c2.778 0 4.93-.806 6.459-2.417 1.527-1.61 2.291-4 2.291-7.166v-1c0-3.167-.764-5.556-2.291-7.167-1.528-1.611-3.68-2.417-6.459-2.417H584.5v20.167zm39.083 12.667v-23.25c0-6.611 1.764-11.445 5.292-14.5 3.528-3.056 8.264-4.584 14.208-4.584 5.945 0 10.695 1.528 14.25 4.584 3.556 3.055 5.334 7.889 5.334 14.5v23.25c0 6.61-1.778 11.444-5.334 14.5-3.555 3.055-8.305 4.583-14.25 4.583-5.944 0-10.68-1.528-14.208-4.583-3.528-3.056-5.292-7.89-5.292-14.5zm10.834 0c0 6.389 2.889 9.583 8.666 9.583 5.834 0 8.75-3.194 8.75-9.583v-23.25c0-6.39-2.916-9.584-8.75-9.584-5.777 0-8.666 3.195-8.666 9.584v23.25z"/>
    </g>
  </g>
</svg>
